<?xml version="1.0" standalone="no"?>
<!DOCTYPE svg PUBLIC "-//W3C//DTD SVG 20010904//EN"
 "http://www.w3.org/TR/2001/REC-SVG-20010904/DTD/svg10.dtd">
<svg version="1.0" xmlns="http://www.w3.org/2000/svg"
 width="1280.000000pt" height="779.000000pt" viewBox="0 0 1280.000000 779.000000"
 preserveAspectRatio="xMidYMid meet">

<g transform="translate(0.000000,779.000000) scale(0.100000,-0.100000)"
fill="#000000" stroke="none">
<path d="M8225 7644 c-121 -35 -278 -79 -350 -98 -71 -19 -233 -64 -360 -101
-126 -36 -281 -80 -343 -96 -63 -16 -222 -60 -355 -98 -133 -38 -262 -75 -287
-81 -148 -38 -146 -37 -182 -98 -18 -31 -35 -61 -37 -66 -2 -6 -42 -72 -87
-148 -46 -77 -84 -142 -84 -145 0 -3 -33 -60 -73 -127 -41 -66 -125 -210 -188
-319 -80 -138 -120 -199 -135 -203 -23 -6 -133 13 -404 71 -96 20 -296 61
-445 90 -345 68 -1194 238 -1570 315 -159 32 -351 71 -425 85 -74 14 -234 46
-355 72 -121 25 -296 60 -390 78 -93 18 -509 101 -924 184 -414 84 -755 151
-757 149 -2 -2 6 -56 17 -119 22 -125 23 -99 -15 -884 -8 -148 -12 -271 -11
-273 2 -2 104 97 227 220 133 134 237 229 257 238 30 12 38 12 70 -6 60 -32
62 -42 64 -377 l2 -302 190 -5 c205 -5 224 -10 250 -60 40 -77 -2 -128 -152
-186 -54 -20 -141 -53 -193 -73 l-95 -37 0 -109 0 -110 230 -47 c127 -26 243
-46 259 -45 23 2 31 9 45 47 85 221 242 402 461 530 178 104 435 157 630 131
191 -26 306 -68 453 -165 187 -123 324 -304 390 -511 29 -93 51 -282 41 -364
l-6 -56 213 -39 c118 -21 241 -44 274 -52 33 -8 71 -14 83 -14 27 0 43 -24
-133 207 -50 65 -162 213 -250 328 -87 116 -184 242 -214 280 -142 178 -167
223 -146 270 7 17 22 39 35 50 21 19 42 20 569 28 300 4 574 5 609 1 51 -5 70
-12 98 -36 62 -55 56 -96 -29 -179 -109 -108 -107 -136 21 -317 37 -50 69 -92
73 -92 12 0 117 108 160 165 30 39 43 68 47 100 6 60 -10 82 -93 125 -101 53
-132 102 -102 166 33 67 38 68 467 69 366 0 387 -1 425 -20 24 -12 48 -34 59
-55 18 -34 18 -38 2 -71 -9 -20 -126 -144 -259 -276 -462 -459 -482 -480 -470
-505 6 -13 53 -77 104 -143 95 -122 131 -169 252 -338 l68 -95 159 -76 c87
-42 161 -76 164 -76 3 0 6 71 6 158 0 177 10 211 72 236 45 19 71 7 174 -82
321 -277 501 -380 697 -398 125 -11 197 22 197 91 0 45 -20 85 -59 118 -39 32
-189 108 -261 132 -30 10 -73 25 -95 35 -22 9 -56 23 -75 31 -19 8 -93 42
-163 77 -199 98 -310 208 -402 397 -76 156 -99 277 -74 397 41 204 191 391
401 496 57 29 144 64 193 79 82 25 104 27 260 27 153 0 181 -2 285 -28 100
-24 127 -27 205 -22 50 4 134 17 187 30 90 22 99 22 129 8 21 -11 38 -31 51
-59 18 -41 19 -66 16 -366 -3 -356 -4 -359 -68 -392 -49 -25 -77 -10 -205 115
-66 64 -140 130 -165 147 -89 60 -225 121 -310 139 -112 22 -248 16 -308 -15
-48 -24 -57 -39 -48 -77 6 -21 29 -36 129 -85 67 -33 142 -66 167 -73 205 -65
476 -194 595 -285 281 -215 377 -390 362 -656 -7 -120 -36 -213 -97 -317 -55
-92 -183 -220 -275 -275 -72 -43 -203 -86 -330 -108 l-70 -12 105 -50 c58 -28
164 -78 235 -113 72 -34 207 -98 300 -142 94 -45 175 -85 181 -89 6 -5 28 -15
50 -23 21 -8 131 -59 244 -114 113 -54 240 -116 283 -136 43 -21 153 -74 245
-118 158 -76 235 -112 432 -206 47 -22 139 -66 205 -97 66 -32 139 -65 161
-75 68 -30 124 -69 124 -88 0 -16 -33 -107 -211 -572 -43 -113 -103 -272 -134
-355 -102 -270 -222 -587 -285 -750 -74 -193 -120 -319 -116 -322 4 -4 523
-83 548 -83 23 0 28 10 62 103 20 56 45 120 54 141 12 30 87 103 307 300 339
305 516 464 665 596 59 52 212 190 340 305 129 116 302 271 385 345 84 74 212
189 285 255 73 66 159 143 190 170 189 167 323 290 334 308 8 12 21 69 29 127
9 58 27 179 41 270 32 208 66 452 66 471 0 12 -38 15 -216 17 -219 3 -230 5
-285 43 -12 9 -24 6 -56 -15 l-41 -27 -508 -3 c-593 -2 -632 0 -670 34 -37 34
-54 78 -43 108 5 13 46 63 90 111 49 52 92 109 110 146 l29 60 0 613 c0 524
-2 618 -15 649 -8 20 -55 77 -104 127 -49 50 -96 106 -105 124 -32 62 1 119
83 143 24 6 190 9 483 7 434 -3 447 -4 475 -24 16 -12 35 -40 43 -66 l16 -46
54 35 c146 93 327 143 518 143 108 0 262 -30 340 -67 29 -14 56 -23 58 -20 3
3 -2 74 -10 159 -33 320 -57 574 -86 898 -47 517 -101 1075 -106 1079 -5 5
-74 -10 -354 -79 -107 -26 -238 -57 -290 -69 -93 -21 -407 -94 -705 -165 -82
-19 -228 -53 -323 -75 l-174 -40 -241 60 c-133 33 -336 84 -452 114 -115 30
-275 70 -355 89 -80 19 -266 67 -415 105 -148 39 -281 71 -295 70 -14 0 -124
-29 -245 -65z m835 -1968 c114 -18 312 -75 396 -116 221 -107 385 -270 443
-438 l26 -77 5 -569 5 -569 99 -32 c152 -49 190 -106 127 -192 -111 -153 -472
-301 -669 -273 -137 19 -205 54 -297 150 l-60 63 -55 -32 c-117 -68 -220 -110
-345 -142 -227 -57 -448 -44 -606 36 -115 59 -226 197 -271 338 -41 126 -18
302 53 424 46 79 207 238 302 299 l78 50 -58 18 c-76 24 -126 60 -204 144
-140 151 -155 352 -41 527 130 202 409 347 762 399 63 9 224 5 310 -8z"/>
<path d="M8710 5586 c-191 -30 -344 -88 -491 -187 -81 -55 -144 -121 -176
-187 -26 -52 -28 -67 -28 -167 0 -96 3 -116 23 -155 36 -68 116 -145 185 -175
54 -25 68 -27 156 -23 86 4 102 8 153 37 66 37 106 79 136 143 33 67 37 145
16 299 -25 177 -23 221 12 266 44 58 118 77 195 52 147 -50 239 -263 256 -596
7 -146 20 -134 -167 -157 -206 -26 -366 -74 -553 -168 -243 -121 -379 -240
-456 -398 -35 -73 -36 -77 -36 -195 l0 -120 42 -85 c51 -104 81 -139 158 -185
101 -61 181 -80 325 -79 136 0 195 10 340 56 105 34 176 67 282 133 39 24 77
41 84 38 8 -3 25 -24 39 -47 34 -57 100 -119 165 -152 48 -25 68 -29 161 -32
74 -3 124 1 170 12 140 35 405 191 397 234 -2 11 -35 27 -102 49 -104 34 -132
52 -148 93 -6 15 -9 228 -9 530 2 554 -4 638 -48 734 -85 186 -362 360 -671
421 -109 21 -308 27 -410 11z m434 -998 c3 -13 6 -148 6 -301 0 -308 0 -309
-66 -367 -42 -37 -142 -87 -192 -96 -48 -9 -115 13 -150 50 -64 66 -78 206
-32 328 22 58 93 164 157 234 69 75 214 174 254 174 9 0 19 -10 23 -22z"/>
<path d="M8979 4440 c-82 -65 -141 -140 -184 -234 -21 -45 -27 -75 -28 -139
-3 -122 24 -167 101 -167 35 0 145 52 177 84 l25 25 0 246 c0 135 -3 245 -8
245 -4 0 -42 -27 -83 -60z"/>
<path d="M8778 5399 c-23 -13 -23 -50 -2 -199 24 -169 16 -270 -25 -354 -18
-37 -31 -69 -28 -72 2 -2 17 0 33 6 39 15 178 47 243 55 l54 7 -6 112 c-3 61
-13 145 -22 186 -20 99 -79 217 -124 247 -36 24 -93 30 -123 12z"/>
<path d="M508 5772 c-330 -328 -439 -443 -437 -458 4 -17 15 -20 111 -24 58
-3 110 -9 115 -13 4 -5 10 -331 13 -725 l5 -717 26 -59 c53 -118 139 -190 299
-247 56 -20 84 -23 200 -23 159 0 220 14 358 80 145 70 267 186 351 335 17 31
31 64 31 74 0 26 -51 15 -130 -30 -93 -53 -216 -97 -277 -98 -58 -2 -93 17
-129 71 -40 58 -44 129 -44 746 l0 587 23 22 c12 13 87 47 167 76 80 29 169
63 199 74 54 22 82 49 67 64 -4 4 -104 10 -222 13 -176 4 -217 8 -225 20 -6 9
-9 136 -8 325 0 171 0 318 0 328 -1 11 -9 17 -27 17 -20 0 -114 -88 -466 -438z
m476 286 c3 -50 6 -196 6 -324 l0 -232 154 -4 c85 -1 158 -6 162 -10 20 -21
-117 -106 -220 -138 -103 -32 -105 -36 -108 -165 l-3 -110 -50 3 c-27 2 -99
14 -160 28 -60 14 -175 38 -253 54 -86 17 -151 35 -162 45 -11 10 -20 34 -22
59 l-3 41 -107 3 c-86 2 -108 6 -108 17 0 26 778 797 821 814 44 18 46 14 53
-81z"/>
<path d="M6478 5660 c-145 -26 -305 -99 -417 -189 -51 -41 -110 -126 -154
-219 -27 -57 -32 -81 -35 -165 -6 -136 9 -202 75 -335 105 -212 248 -317 613
-449 149 -54 289 -127 352 -183 106 -94 120 -202 36 -274 -51 -44 -114 -61
-218 -59 -85 1 -187 27 -270 69 -101 51 -312 205 -473 346 -129 113 -121 130
-125 -287 -1 -192 0 -361 3 -374 7 -28 8 -28 155 25 148 52 210 52 385 -5 171
-55 297 -75 441 -67 310 17 558 151 667 362 91 177 98 431 15 587 -71 132
-209 254 -415 366 -130 70 -190 97 -433 191 -199 78 -235 95 -285 136 -69 59
-83 121 -38 174 61 73 134 100 274 101 237 1 462 -117 710 -374 59 -61 85 -71
94 -34 9 34 1 644 -8 653 -4 5 -67 -4 -140 -19 -163 -33 -223 -34 -357 -1 -82
20 -138 26 -255 29 -82 2 -171 0 -197 -5z m438 -43 c50 -14 133 -30 184 -36
106 -13 129 -21 108 -39 -8 -6 -81 -41 -163 -77 -164 -73 -148 -71 -305 -46
-75 12 -210 5 -281 -15 -104 -29 -170 -110 -150 -182 5 -15 18 -44 31 -65 14
-23 20 -46 16 -60 -6 -25 -169 -278 -241 -375 -70 -95 -69 -95 -144 30 -69
115 -99 249 -81 364 35 231 236 424 520 502 106 29 119 31 275 27 111 -3 159
-9 231 -28z"/>
<path d="M2430 5554 c-219 -42 -383 -127 -536 -279 -83 -82 -134 -157 -183
-268 -70 -161 -85 -242 -86 -467 0 -227 13 -307 77 -464 52 -126 95 -198 163
-274 240 -265 653 -367 1042 -257 154 44 337 150 448 260 76 75 155 188 162
232 8 48 3 47 -192 -42 -146 -66 -314 -113 -440 -122 -94 -7 -218 20 -287 61
-101 60 -182 167 -221 291 -19 61 -47 224 -47 276 0 73 -34 69 606 69 l574 0
0 113 c0 262 -84 464 -267 638 -101 97 -222 165 -366 205 -79 23 -116 27 -257
29 -91 2 -176 1 -190 -1z m355 -26 c78 -12 221 -69 315 -126 91 -54 211 -174
263 -263 41 -71 89 -188 113 -277 18 -68 29 -209 20 -246 -6 -25 -9 -26 -76
-26 -58 0 -126 11 -350 55 -8 2 -38 6 -67 10 -86 12 -88 15 -84 151 3 156 -15
358 -40 440 -38 123 -119 180 -256 178 -185 -3 -246 -98 -288 -453 -8 -67 -20
-130 -27 -138 -18 -22 -134 -13 -323 26 -178 36 -240 56 -259 83 -13 18 -12
26 4 64 47 109 178 264 300 354 76 56 198 118 292 149 115 38 302 46 463 19z
m-70 -139 c103 -29 149 -131 165 -363 16 -232 16 -235 -22 -250 -18 -8 -125
-30 -238 -50 -113 -21 -216 -39 -230 -41 -51 -10 -54 0 -41 150 13 156 44 342
66 405 18 51 56 104 91 127 48 31 140 41 209 22z"/>
<path d="M2554 5326 c-41 -18 -71 -58 -89 -120 -21 -70 -53 -275 -57 -366 l-3
-75 40 1 c38 0 193 24 320 49 l60 11 -2 105 c-8 321 -48 409 -183 409 -30 -1
-69 -7 -86 -14z"/>
<path d="M11765 5554 c-171 -25 -322 -87 -450 -184 -43 -33 -84 -59 -90 -57
-5 2 -11 32 -12 68 -2 35 -5 79 -8 97 l-6 32 -454 0 c-414 0 -455 -1 -455 -16
0 -9 44 -63 99 -119 76 -80 102 -114 115 -151 13 -42 16 -132 17 -664 2 -671
4 -645 -56 -740 -15 -24 -55 -73 -90 -110 -67 -72 -89 -105 -80 -120 4 -6 210
-10 561 -10 489 0 555 2 560 15 4 10 -24 47 -83 108 -137 142 -128 82 -128
812 l0 610 22 31 c13 17 54 50 92 74 117 70 197 85 302 54 71 -21 147 -96 180
-180 l23 -59 0 -570 c0 -674 5 -638 -105 -747 -37 -37 -81 -74 -97 -82 -34
-18 -49 -46 -30 -58 7 -4 262 -8 566 -8 495 0 553 2 559 16 4 11 -17 39 -64
87 -151 155 -145 119 -142 794 2 597 -3 665 -56 780 -62 136 -182 226 -365
272 -82 21 -258 35 -325 25z"/>
<path d="M3501 5511 c-19 -12 -8 -50 29 -97 17 -22 51 -66 75 -99 24 -33 79
-105 122 -161 43 -55 144 -188 226 -295 81 -107 179 -234 218 -284 101 -130
120 -160 114 -177 -3 -8 -181 -185 -395 -393 -389 -378 -422 -416 -372 -427 9
-2 194 -2 410 0 l392 4 0 23 c0 16 -15 34 -50 60 -60 44 -108 103 -126 154
-21 63 4 135 80 225 49 58 205 198 215 194 5 -2 37 -41 73 -88 35 -47 91 -121
125 -165 77 -102 96 -140 88 -173 -9 -37 -54 -90 -119 -142 -38 -31 -56 -52
-56 -67 l0 -23 523 -2 c569 -2 617 -2 631 12 14 14 -15 69 -92 174 -37 50 -79
109 -95 131 -15 22 -61 85 -103 140 -41 55 -83 111 -92 125 -28 41 -292 390
-343 454 -26 32 -50 68 -53 80 -5 17 61 87 375 398 310 307 380 381 377 400
l-3 23 -390 2 c-216 2 -396 -1 -404 -6 -23 -15 -5 -39 48 -66 160 -81 190
-178 98 -313 -50 -73 -226 -262 -244 -262 -11 0 -170 220 -216 301 -50 86 -32
161 59 250 35 34 64 67 64 74 0 8 -24 14 -67 18 -103 10 -1106 8 -1122 -2z
m1114 -23 c4 -4 -15 -42 -43 -84 -56 -86 -69 -132 -53 -191 11 -41 237 -374
259 -381 14 -4 148 130 228 229 66 81 93 140 94 201 0 64 -9 83 -74 156 -31
35 -54 67 -51 73 8 11 615 12 633 0 31 -19 -34 -95 -377 -436 -193 -192 -351
-352 -351 -356 0 -4 30 -45 68 -91 166 -204 262 -338 262 -366 0 -29 -171 -3
-595 90 -126 28 -244 58 -262 67 -19 9 -63 57 -105 114 -40 53 -167 221 -283
372 -115 151 -219 287 -230 303 -11 15 -56 75 -101 132 -114 148 -121 160
-103 171 16 10 1074 8 1084 -3z"/>
<path d="M11458 5200 c-16 -5 -57 -25 -93 -45 l-65 -36 0 -610 0 -610 24 -47
c14 -26 58 -80 99 -121 l75 -73 68 53 c100 76 124 100 145 142 19 36 20 60 17
625 -3 578 -3 588 -24 627 -12 22 -30 48 -41 57 -46 42 -137 59 -205 38z"/>
</g>
</svg>
